<?xml version="1.0" encoding="UTF-8"?>
<svg xmlns="http://www.w3.org/2000/svg" viewBox="0 0 528.493 528.493">
    <polygon fill="#f998bf" points="138.158 303.828 25.772 191.99 112.972 460.367 138.158 303.828"/>
    <polygon fill="#f998bf" points="256.365 17.348 32.989 179.64 186.273 155.746 256.365 17.348"/>
    <polygon fill="#f998bf" points="272.051 17.678 341.976 155.746 494.893 179.583 272.051 17.678"/>
    <polygon fill="#f998bf" points="264.124 395.348 121.481 468.468 406.767 468.468 264.124 395.348"/>
    <polygon fill="#f998bf" points="390.091 303.828 415.181 459.774 502.052 192.413 390.091 303.828"/>
    <path fill="#f998bf"
          d="M264.247,196.512s10.763,17.599,12.38,40.229c23.19-46.146,48.16-129.75-12.38-176.933-60.54,47.183-35.57,130.787-12.38,176.933,1.617-22.63,12.379-40.229,12.379-40.229Z"/>
    <path fill="#f998bf"
          d="M328.561,242.996s-13.334,15.741-34.314,24.376c51.092,7.542,138.309,5.021,164.116-67.265-63.794-42.68-135.343,7.259-171.884,43.756,21.995-5.565,42.082-.867,42.082-.867Z"/>
    <path fill="#f998bf"
          d="M304.218,318.93s-19.074-7.857-33.734-25.172c8.51,50.94,37.688,133.17,114.406,135.535,21.031-73.817-48.464-126.576-94.418-150.146,12.049,19.224,13.746,39.783,13.746,39.783Z"/>
    <path fill="#f998bf"
          d="M224.258,318.917s1.703-20.558,13.759-39.779c-45.961,23.555-115.473,76.292-94.465,150.116,76.719-2.341,105.923-84.562,114.449-135.499-14.666,17.311-33.742,25.162-33.742,25.162Z"/>
    <path fill="#f998bf"
          d="M199.822,243.331s20.062-4.802,42.086.648c-36.73-36.307-108.538-85.872-172.109-42.861,26.183,72.151,113.411,74.217,164.464,66.41-21.025-8.526-34.441-24.197-34.441-24.197Z"/>
</svg>