<svg xmlns="http://www.w3.org/2000/svg" viewBox="0 0 231 231">
    <defs>
        <style>.cls-1{fill:#d7a2c8;}</style>
    </defs>
    <g>
        <polygon class="cls-1" points="115.47 36.17 95.13 50.95 115.47 106.83 135.81 50.95 115.47 36.17"/>
        <polygon class="cls-1" points="40.05 90.97 47.82 114.87 107.25 112.8 60.39 76.19 40.05 90.97"/>
        <polygon class="cls-1" points="68.86 179.63 94 179.63 110.39 122.46 61.09 155.72 68.86 179.63"/>
        <polygon class="cls-1" points="162.08 179.63 169.85 155.72 120.55 122.46 136.94 179.63 162.08 179.63"/>
        <polygon class="cls-1" points="190.89 90.97 170.55 76.19 123.69 112.8 183.12 114.87 190.89 90.97"/>
        <path class="cls-1"
              d="M224.78,79.41,183,207.91H47.92L6.17,79.41,115.47,0ZM115.47,26.17,31.05,87.5,63.3,186.74H167.65L199.89,87.5Z"/>
    </g>
</svg>